<svg width="14" height="14" viewBox="0 0 14 14" fill="none" xmlns="http://www.w3.org/2000/svg">
<path d="M12.5 7.91488H7.91665V12.4982C7.91665 12.7413 7.82007 12.9745 7.64816 13.1464C7.47625 13.3183 7.24309 13.4149 6.99998 13.4149C6.75686 13.4149 6.52371 13.3183 6.3518 13.1464C6.17989 12.9745 6.08331 12.7413 6.08331 12.4982V7.91488H1.49998C1.25686 7.91488 1.02371 7.8183 0.851799 7.64639C0.67989 7.47448 0.583313 7.24132 0.583313 6.99821C0.583313 6.75509 0.67989 6.52194 0.851799 6.35003C1.02371 6.17812 1.25686 6.08154 1.49998 6.08154H6.08331V1.49821C6.08331 1.25509 6.17989 1.02194 6.3518 0.850028C6.52371 0.67812 6.75686 0.581543 6.99998 0.581543C7.24309 0.581543 7.47625 0.67812 7.64816 0.850028C7.82007 1.02194 7.91665 1.25509 7.91665 1.49821V6.08154H12.5C12.7431 6.08154 12.9763 6.17812 13.1482 6.35003C13.3201 6.52194 13.4166 6.75509 13.4166 6.99821C13.4166 7.24132 13.3201 7.47448 13.1482 7.64639C12.9763 7.8183 12.7431 7.91488 12.5 7.91488Z" fill="#FAFAFA"/>
</svg>
