<svg width="11" height="7" viewBox="0 0 11 7" fill="none" xmlns="http://www.w3.org/2000/svg">
<path fill-rule="evenodd" clip-rule="evenodd" d="M6.05971 6.43478C5.91126 6.58319 5.70993 6.66657 5.50001 6.66657C5.29008 6.66657 5.08876 6.58319 4.9403 6.43478L0.46184 1.95632C0.386228 1.88329 0.325917 1.79593 0.284427 1.69935C0.242936 1.60276 0.221097 1.49888 0.220184 1.39376C0.21927 1.28864 0.239301 1.1844 0.279107 1.0871C0.318912 0.989812 0.377696 0.90142 0.452028 0.827088C0.52636 0.752757 0.61475 0.693973 0.712043 0.654167C0.809336 0.614362 0.913583 0.594331 1.0187 0.595245C1.12382 0.596158 1.2277 0.617997 1.32429 0.659488C1.42087 0.700978 1.50823 0.761289 1.58126 0.836901L5.50001 4.75565L9.41876 0.836901C9.56807 0.692693 9.76804 0.612897 9.97562 0.614701C10.1832 0.616505 10.3817 0.699763 10.5285 0.846545C10.6753 0.993326 10.7586 1.19189 10.7604 1.39946C10.7622 1.60703 10.6824 1.80701 10.5382 1.95632L6.05971 6.43478Z" fill="#505050"/>
</svg>
