<svg width="25" height="28" viewBox="0 0 25 28" fill="none" xmlns="http://www.w3.org/2000/svg">
<path fill-rule="evenodd" clip-rule="evenodd" d="M0.875 2.8125C0.875 2.29864 1.07913 1.80583 1.44248 1.44248C1.80583 1.07913 2.29864 0.875 2.8125 0.875H22.1875C22.7014 0.875 23.1942 1.07913 23.5575 1.44248C23.9209 1.80583 24.125 2.29864 24.125 2.8125V5.50692C24.1249 6.192 23.8526 6.84898 23.3681 7.33333L16.375 14.3264V23.9157C16.375 24.158 16.3131 24.3962 16.1952 24.6077C16.0773 24.8193 15.9072 24.9972 15.7012 25.1246C15.4952 25.2519 15.26 25.3245 15.018 25.3354C14.776 25.3462 14.5353 25.2951 14.3187 25.1868L9.51754 22.7868C9.24935 22.6527 9.0238 22.4466 8.86616 22.1916C8.70851 21.9365 8.62501 21.6426 8.625 21.3428V14.3264L1.63192 7.33333C1.14741 6.84898 0.875146 6.192 0.875 5.50692V2.8125ZM3.45833 3.45833V5.50692L10.64 12.6886C10.8201 12.8685 10.963 13.0821 11.0605 13.3173C11.1581 13.5524 11.2083 13.8045 11.2083 14.059V20.7434L13.7917 22.0351V14.059C13.7917 13.545 13.9957 13.0515 14.36 12.6899L21.5417 5.50562V3.45833H3.45833Z" fill="#637D92"/>
</svg>
