<svg width="13" height="14" viewBox="0 0 13 14" fill="none" xmlns="http://www.w3.org/2000/svg">
<path d="M6.5 0C5.21442 0 3.95771 0.410543 2.8888 1.17971C1.81988 1.94888 0.986755 3.04213 0.494786 4.32121C0.00281635 5.6003 -0.125905 7.00776 0.124899 8.36563C0.375702 9.7235 0.994767 10.9708 1.90381 11.9497C2.81285 12.9287 3.97104 13.5954 5.23191 13.8655C6.49279 14.1356 7.79972 13.997 8.98744 13.4672C10.1752 12.9373 11.1903 12.0401 11.9046 10.889C12.6188 9.73784 13 8.38447 13 7C12.9982 5.14409 12.3128 3.36475 11.0942 2.05242C9.87559 0.740087 8.22335 0.00195988 6.5 0ZM10 7.53846H6.5C6.36739 7.53846 6.24022 7.48173 6.14645 7.38075C6.05268 7.27977 6 7.14281 6 7V3.23077C6 3.08796 6.05268 2.951 6.14645 2.85002C6.24022 2.74904 6.36739 2.69231 6.5 2.69231C6.63261 2.69231 6.75979 2.74904 6.85356 2.85002C6.94732 2.951 7 3.08796 7 3.23077V6.46154H10C10.1326 6.46154 10.2598 6.51827 10.3536 6.61925C10.4473 6.72023 10.5 6.85719 10.5 7C10.5 7.14281 10.4473 7.27977 10.3536 7.38075C10.2598 7.48173 10.1326 7.53846 10 7.53846Z" fill="#E7A05E"/>
</svg>
