<svg width="18" height="18" viewBox="0 0 18 18" fill="none" xmlns="http://www.w3.org/2000/svg">
<path d="M13.2098 11.6374C14.2991 10.1509 14.787 8.30791 14.5759 6.47715C14.3647 4.64639 13.4701 2.96286 12.071 1.76338C10.6719 0.563893 8.8715 -0.0630888 7.02997 0.0078685C5.18845 0.0788258 3.44162 0.84249 2.13896 2.14608C0.836304 3.44967 0.0738903 5.19704 0.00425079 7.03862C-0.0653888 8.8802 0.562881 10.6802 1.76337 12.0784C2.96385 13.4767 4.64802 14.3701 6.47893 14.5799C8.30984 14.7897 10.1525 14.3005 11.6382 13.2101H11.637C11.67 13.2551 11.7068 13.2982 11.7473 13.3395L16.0785 17.6707C16.2895 17.8818 16.5756 18.0005 16.8741 18.0006C17.1725 18.0007 17.4587 17.8822 17.6698 17.6713C17.8809 17.4603 17.9996 17.1742 17.9997 16.8758C17.9998 16.5773 17.8814 16.2911 17.6704 16.08L13.3392 11.7487C13.299 11.708 13.2557 11.6715 13.2098 11.6374ZM13.5 7.31286C13.5 8.12541 13.34 8.93001 13.029 9.68071C12.7181 10.4314 12.2623 11.1135 11.6878 11.6881C11.1132 12.2626 10.4311 12.7184 9.68039 13.0294C8.92968 13.3403 8.12509 13.5004 7.31253 13.5004C6.49998 13.5004 5.69538 13.3403 4.94468 13.0294C4.19398 12.7184 3.51187 12.2626 2.93731 11.6881C2.36275 11.1135 1.90698 10.4314 1.59603 9.68071C1.28508 8.93001 1.12503 8.12541 1.12503 7.31286C1.12503 5.67183 1.77693 4.09802 2.93731 2.93763C4.09769 1.77725 5.67151 1.12536 7.31253 1.12536C8.95356 1.12536 10.5274 1.77725 11.6878 2.93763C12.8481 4.09802 13.5 5.67183 13.5 7.31286Z" fill="#4B4B4B"/>
</svg>
