<svg width="12" height="14" viewBox="0 0 12 14" fill="none" xmlns="http://www.w3.org/2000/svg">
<path fill-rule="evenodd" clip-rule="evenodd" d="M1.85181 0.125C1.53748 0.125 1.23602 0.257672 1.01376 0.493828C0.791493 0.729985 0.666626 1.05028 0.666626 1.38426V10.1991C0.666626 10.5331 0.791493 10.8533 1.01376 11.0895C1.23602 11.3257 1.53748 11.4583 1.85181 11.4583H10.1481C10.4624 11.4583 10.7639 11.3257 10.9862 11.0895C11.2084 10.8533 11.3333 10.5331 11.3333 10.1991V1.38426C11.3333 1.05028 11.2084 0.729985 10.9862 0.493828C10.7639 0.257672 10.4624 0.125 10.1481 0.125H1.85181ZM8.93329 4.40396C9.04449 4.2859 9.10699 4.12574 9.10704 3.95872C9.1071 3.7917 9.0447 3.6315 8.93359 3.51335C8.82247 3.39521 8.67174 3.3288 8.51454 3.32874C8.35734 3.32868 8.20656 3.39498 8.09537 3.51304L5.16203 6.6297L3.90514 5.29426C3.85013 5.23576 3.7848 5.18935 3.7129 5.15767C3.641 5.126 3.56393 5.10968 3.48609 5.10965C3.3289 5.10959 3.17812 5.17588 3.06692 5.29394C2.95573 5.41201 2.89323 5.57216 2.89317 5.73918C2.89312 5.90621 2.95551 6.06641 3.06663 6.18456L4.701 7.92107C4.76153 7.98542 4.8334 8.03647 4.91251 8.07129C4.99162 8.10612 5.07641 8.12404 5.16203 8.12404C5.24766 8.12404 5.33245 8.10612 5.41156 8.07129C5.49066 8.03647 5.56254 7.98542 5.62307 7.92107L8.93329 4.40396Z" fill="#3557FF"/>
</svg>
