<svg width="35" height="35" viewBox="0 0 35 35" fill="none" xmlns="http://www.w3.org/2000/svg">
<path d="M4.375 1.64062H29.5312V33.3594H4.375C4.08492 33.3594 3.80672 33.2441 3.6016 33.039C3.39648 32.8339 3.28125 32.5557 3.28125 32.2656V2.73438C3.28125 2.44429 3.39648 2.16609 3.6016 1.96098C3.80672 1.75586 4.08492 1.64063 4.375 1.64062Z" fill="#53D86A"/>
<path d="M29.5312 1.64062H5.46875V33.3594H29.5312V1.64062Z" fill="#167FFC"/>
<path d="M25.7031 4.375H9.29688V9.29688H25.7031V4.375Z" fill="#FE9526"/>
<path d="M23.4535 30.8954L21.5942 27.0503L18.1472 29.5725L20.3965 20.5518L25.7028 21.8746L23.4535 30.8954Z" fill="#9E6528"/>
<path d="M33.3576 29.6584L29.9106 27.1362L28.0512 30.9813L25.8025 21.9606L31.1088 20.6377L33.3576 29.6584Z" fill="#9E6528"/>
<path d="M32.8349 18.5938C32.8349 19.3594 31.6039 19.9238 31.3791 20.6172C31.1461 21.3347 31.8029 22.5121 31.3687 23.1093C30.9345 23.7065 29.604 23.4489 29.0013 23.8875C28.3986 24.3261 28.2472 25.6665 27.5302 25.8995C26.8379 26.1242 25.9235 25.1339 25.1568 25.1339C24.39 25.1339 23.4757 26.1221 22.7833 25.8995C22.0664 25.6665 21.9083 24.3223 21.3122 23.8875C20.7161 23.4528 19.3834 23.712 18.9448 23.1093C18.5062 22.5067 19.1674 21.3347 18.9344 20.6172C18.7097 19.9254 17.4786 19.3594 17.4786 18.5938C17.4786 17.8282 18.7097 17.2638 18.9344 16.5703C19.1674 15.8528 18.5106 14.6754 18.9448 14.0782C19.379 13.481 20.7096 13.7386 21.3122 13.3C21.9149 12.8614 22.0664 11.521 22.7833 11.2881C23.4757 11.0633 24.39 12.0537 25.1568 12.0537C25.9235 12.0537 26.8379 11.0655 27.5302 11.2881C28.2472 11.521 28.4052 12.8653 29.0013 13.3C29.5974 13.7348 30.9301 13.4756 31.3687 14.0782C31.8073 14.6809 31.1461 15.8528 31.3791 16.5703C31.6039 17.2638 32.8349 17.8282 32.8349 18.5938Z" fill="#EC9B45"/>
<path d="M32.8349 18.5938C32.8349 19.3594 31.6039 19.9238 31.3791 20.6172C31.1461 21.3347 31.8029 22.5121 31.3687 23.1093C30.9345 23.7065 29.604 23.4489 29.0013 23.8875C28.3986 24.3261 28.2472 25.6665 27.5302 25.8995C26.8379 26.1242 25.9235 25.1339 25.1568 25.1339C24.39 25.1339 23.4757 26.1221 22.7833 25.8995C22.0664 25.6665 21.9083 24.3223 21.3122 23.8875C20.7161 23.4528 19.3834 23.712 18.9448 23.1093C18.5062 22.5067 19.1674 21.3347 18.9344 20.6172C18.7097 19.9254 17.4786 19.3594 17.4786 18.5938C17.4786 17.8282 18.7097 17.2638 18.9344 16.5703C19.1674 15.8528 18.5106 14.6754 18.9448 14.0782C19.379 13.481 20.7096 13.7386 21.3122 13.3C21.9149 12.8614 22.0664 11.521 22.7833 11.2881C23.4757 11.0633 24.39 12.0537 25.1568 12.0537C25.9235 12.0537 26.8379 11.0655 27.5302 11.2881C28.2472 11.521 28.4052 12.8653 29.0013 13.3C29.5974 13.7348 30.9301 13.4756 31.3687 14.0782C31.8073 14.6809 31.1461 15.8528 31.3791 16.5703C31.6039 17.2638 32.8349 17.8282 32.8349 18.5938Z" fill="#EC9B45"/>
<path d="M25.7028 14.7655C25.7028 14.6687 25.6771 14.5737 25.6283 14.4901C25.5795 14.4065 25.5094 14.3373 25.4252 14.2896C25.3409 14.242 25.2455 14.2175 25.1487 14.2188C25.052 14.2201 24.9572 14.247 24.8743 14.2968L22.1399 15.9375L22.7032 16.8748L24.609 15.7313V21.328H22.9684V22.4218H27.3434V21.328H25.7028V14.7655Z" fill="white"/>
</svg>
