<svg width="16" height="17" viewBox="0 0 16 17" fill="none" xmlns="http://www.w3.org/2000/svg">
<path d="M5.59089 5.16188V4.28348C5.59089 4.20734 5.67839 4.16529 5.73748 4.21188L10.8602 8.21302C10.9037 8.24687 10.939 8.29021 10.9632 8.33974C10.9874 8.38927 11 8.44368 11 8.49882C11 8.55395 10.9874 8.60836 10.9632 8.65789C10.939 8.70742 10.9037 8.75076 10.8602 8.78461L5.73748 12.7857C5.67726 12.8323 5.59089 12.7903 5.59089 12.7142V11.8357C5.59089 11.7801 5.61703 11.7267 5.66021 11.6926L9.75112 8.49938L5.66021 5.30507C5.61703 5.27098 5.59089 5.21757 5.59089 5.16188Z" fill="#7991A4"/>
</svg>
