<svg width="12" height="13" viewBox="0 0 12 13" fill="none" xmlns="http://www.w3.org/2000/svg">
<path d="M8.40911 3.16188V2.28348C8.40911 2.20734 8.32161 2.16529 8.26252 2.21188L3.13979 6.21302C3.09626 6.24687 3.06105 6.29021 3.03682 6.33974C3.01259 6.38927 3 6.44368 3 6.49882C3 6.55395 3.01259 6.60836 3.03682 6.65789C3.06105 6.70742 3.09626 6.75076 3.13979 6.78461L8.26252 10.7857C8.32274 10.8323 8.40911 10.7903 8.40911 10.7142V9.83575C8.40911 9.78007 8.38297 9.72666 8.33979 9.69257L4.24888 6.49938L8.33979 3.30507C8.38297 3.27098 8.40911 3.21757 8.40911 3.16188Z" fill="black"/>
</svg>
