<svg width="27" height="42" viewBox="0 0 27 42" fill="none" xmlns="http://www.w3.org/2000/svg">
<path d="M26.7924 4.00769L19.5597 7.17491H7.6868L0 4.00769L6.13679 0H20.6556L26.7924 4.00769Z" fill="#1C75A1"/>
<path d="M7.98475 16.2353L0 4.00769L6.13679 0L16.7388 16.2353H7.98475Z" fill="#2D93BA"/>
<path d="M14.0012 16.7217H12.1454V20.3939H14.0012V16.7217Z" fill="#FCD462"/>
<path d="M15.9744 39.0991C21.2659 37.497 24.2567 31.9086 22.6545 26.6171C21.0524 21.3257 15.4641 18.3349 10.1726 19.937C4.88113 21.5391 1.89033 27.1275 3.49245 32.4189C5.09458 37.7104 10.6829 40.7012 15.9744 39.0991Z" fill="#FCD462"/>
<path d="M15.3525 37.0421C19.5081 35.7838 21.8569 31.3951 20.5987 27.2395C19.3405 23.0839 14.9517 20.7351 10.7961 21.9933C6.64051 23.2515 4.29171 27.6403 5.54992 31.7959C6.80814 35.9515 11.1969 38.3003 15.3525 37.0421Z" fill="#F7BE56"/>
<path d="M9.15478 25.1819C9.50273 25.5234 10.1613 25.4126 10.7872 25.0833L10.7883 25.0827L10.7878 25.082C10.5737 24.6531 9.75615 24.62 9.15692 25.1789C9.45552 24.901 9.78319 24.6561 10.1343 24.4485C11.0131 24.2992 11.8554 23.9839 12.6163 23.5194L12.6177 23.5185L12.6161 23.518C12.1574 23.3815 11.6691 23.3803 11.2097 23.5146C10.7504 23.649 10.3396 23.9131 10.0268 24.2753C9.66424 24.4898 9.3258 24.7427 9.01738 25.0297C9.59851 24.4757 10.0498 23.815 9.83049 23.3845L9.83009 23.3838L9.82858 23.3846C8.9329 23.8657 8.67138 24.6978 9.01413 25.0317L9.01462 25.0323C8.68073 25.344 8.38412 25.6933 8.13075 26.0734C8.55954 25.4163 8.81262 24.6873 8.50128 24.3153L8.50072 24.3147L8.49954 24.3158C7.78583 24.9611 7.72254 25.8229 8.12812 26.076L8.12873 26.0764C7.87949 26.451 7.67155 26.8515 7.50856 27.2709C7.78488 26.5419 7.85599 25.7834 7.47257 25.4868L7.47189 25.4863L7.47101 25.4876C6.93924 26.26 7.05816 27.1125 7.50659 27.274L7.50727 27.2743C7.34491 27.6925 7.22547 28.1262 7.15079 28.5685C7.27481 27.7987 7.1802 27.0461 6.74438 26.8375L6.74363 26.8372L6.74305 26.8386C6.39313 27.701 6.67806 28.5087 7.14946 28.572L7.15018 28.5721C7.07549 29.0147 7.04441 29.4635 7.05739 29.9121C7.02903 29.1325 6.78467 28.4181 6.31665 28.3062L6.31585 28.306L6.31557 28.3075C6.14763 29.2228 6.58246 29.9534 7.05677 29.9158H7.05751C7.07047 30.3644 7.12771 30.8106 7.22841 31.2479C7.04772 30.4896 6.66991 29.8422 6.18941 29.8315H6.1886V29.8331C6.20257 30.764 6.77115 31.3887 7.22849 31.2516L7.2292 31.2514C7.32993 31.6887 7.47557 32.1143 7.6638 32.5217C7.33084 31.8158 6.83563 31.2612 6.36264 31.3521L6.36185 31.3523L6.36217 31.3538C6.55803 32.2634 7.24421 32.7564 7.66467 32.5253L7.66534 32.525C7.85482 32.9344 8.08901 33.3217 8.36363 33.6796C7.87841 33.0573 7.28203 32.6176 6.83638 32.8067L6.83563 32.8071L6.83626 32.8085C7.21399 33.6595 8.00165 33.9986 8.36528 33.683L8.36587 33.6825C8.64668 34.0477 8.96958 34.3784 9.32789 34.6678C8.6905 34.16 8.00887 33.8543 7.61063 34.134L7.60998 34.1345L7.6109 34.1357C8.17066 34.8911 9.04339 35.0571 9.33039 34.6708L9.33085 34.6702C9.70703 34.9729 10.1186 35.2288 10.5565 35.4322C9.76689 35.07 9.01647 34.914 8.68535 35.2726L8.68481 35.2732L8.68605 35.2742C9.42767 35.8968 10.3695 35.874 10.5599 35.4346L10.5602 35.4339C11.2078 35.7309 11.8976 35.9252 12.605 36.0099L12.6304 35.8095C11.9455 35.7275 11.2776 35.5394 10.6506 35.2518L10.6509 35.2511C10.8464 34.8099 10.4608 34.2182 9.95124 33.782L9.95034 33.7813L9.9498 33.7819C9.62397 34.1325 9.84821 34.8741 10.6471 35.2502C10.2231 35.0532 9.82459 34.8055 9.46039 34.5124L9.46088 34.5118C9.75302 34.1247 9.54806 33.4764 9.16465 32.9491L9.16397 32.9482L9.16333 32.9487C8.77022 33.2215 8.81422 33.9869 9.45756 34.5101C9.11065 34.2299 8.79802 33.9097 8.52617 33.5562L8.52675 33.5557C8.89555 33.2405 8.85517 32.5707 8.59791 31.978L8.59745 31.977L8.59671 31.9773C8.15626 32.1607 8.0361 32.9148 8.52399 33.5534C8.2581 33.2068 8.03137 32.8319 7.84793 32.4355L7.84861 32.4351C8.27416 32.2054 8.38217 31.546 8.25105 30.9137L8.25082 30.9127L8.25001 30.9128C7.78215 30.9991 7.51391 31.7099 7.84645 32.4323C7.6642 32.0379 7.5232 31.6258 7.42568 31.2024L7.42641 31.2023C7.88895 31.0675 8.12906 30.4473 8.12406 29.8011V29.8H8.12324C7.64789 29.7856 7.24769 30.4246 7.4249 31.199C7.32742 30.7756 7.272 30.3436 7.25944 29.9093H7.26018C7.73963 29.8751 8.09575 29.3193 8.21696 28.685L8.21715 28.6839L8.21636 28.6838C7.75338 28.5692 7.23756 29.1112 7.25933 29.9058C7.24676 29.4715 7.27685 29.0369 7.34917 28.6084L7.3499 28.6086C7.82634 28.6763 8.28234 28.207 8.5297 27.6103L8.53013 27.6093L8.52938 27.6089C8.09874 27.3988 7.48331 27.8217 7.34975 28.605C7.42206 28.1767 7.5377 27.7569 7.69488 27.352L7.69558 27.3523C8.14909 27.5194 8.68883 27.1551 9.06234 26.6218L9.06297 26.6209L9.06231 26.6204C8.68392 26.3233 7.98494 26.6085 7.69616 27.3487C7.85396 26.9426 8.05528 26.5549 8.2966 26.1922L8.29721 26.1926C8.70791 26.4523 9.31507 26.2087 9.81482 25.7645L9.81569 25.7637L9.81515 25.7631C9.5089 25.3917 8.7427 25.5239 8.29856 26.1892C8.54386 25.8213 8.83102 25.483 9.1543 25.1813L9.15478 25.1819ZM16.9938 25.1819C16.6458 25.5234 15.9873 25.4126 15.3614 25.0833L15.3603 25.0827L15.3607 25.082C15.5749 24.6531 16.3924 24.62 16.9916 25.1789C16.693 24.901 16.3654 24.6561 16.0143 24.4485C15.1355 24.2992 14.2931 23.9839 13.5322 23.5194L13.5308 23.5185L13.5324 23.518C13.9911 23.3815 14.4795 23.3803 14.9388 23.5147C15.3981 23.649 15.8089 23.9132 16.1217 24.2753C16.4843 24.4898 16.8227 24.7428 17.1311 25.0298C16.55 24.4758 16.0988 23.815 16.318 23.3845L16.3184 23.3838L16.3199 23.3846C17.2156 23.8657 17.4771 24.6979 17.1344 25.0318L17.1339 25.0323C17.4678 25.344 17.7644 25.6933 18.0178 26.0734C17.589 25.4163 17.3359 24.6873 17.6472 24.3154L17.6478 24.3148L17.649 24.3158C18.3627 24.9611 18.426 25.8229 18.0204 26.076L18.0198 26.0764C18.269 26.451 18.477 26.8516 18.64 27.271C18.3636 26.5419 18.2925 25.7834 18.676 25.4868L18.6766 25.4863L18.6775 25.4876C19.2093 26.26 19.0904 27.1125 18.6419 27.274L18.6413 27.2743C18.8036 27.6925 18.9231 28.1262 18.9977 28.5685C18.8737 27.7987 18.9683 27.0461 19.4041 26.8375L19.4049 26.8372L19.4055 26.8386C19.7554 27.701 19.4705 28.5087 18.9991 28.572L18.9983 28.5721C19.073 29.0147 19.1041 29.4635 19.0911 29.9122C19.1195 29.1325 19.3639 28.4181 19.8319 28.3062L19.8327 28.306L19.833 28.3076C20.0009 29.2228 19.5661 29.9534 19.0918 29.9158H19.091C19.0781 30.3644 19.0208 30.8106 18.9201 31.2479C19.1008 30.4896 19.4786 29.8423 19.9591 29.8316H19.9599V29.8331C19.946 30.764 19.3774 31.3887 18.92 31.2516L18.9193 31.2514C18.8186 31.6887 18.673 32.1144 18.4847 32.5217C18.8177 31.8159 19.3129 31.2612 19.7859 31.3521L19.7867 31.3523L19.7864 31.3538C19.5905 32.2634 18.9043 32.7564 18.4839 32.5253L18.4832 32.525C18.2937 32.9344 18.0595 33.3217 17.7849 33.6797C18.2701 33.0573 18.8665 32.6176 19.3121 32.8067L19.3129 32.8071L19.3123 32.8085C18.9345 33.6595 18.1469 33.9986 17.7832 33.683L17.7827 33.6826C17.5019 34.0477 17.1789 34.3784 16.8206 34.6678C17.458 34.16 18.1397 33.8543 18.5379 34.134L18.5386 34.1345L18.5376 34.1357C17.9779 34.8911 17.1051 35.0571 16.8181 34.6708L16.8177 34.6702C16.4415 34.9729 16.0299 35.2288 15.592 35.4322C16.3816 35.07 17.1321 34.914 17.4632 35.2726L17.4637 35.2732L17.4625 35.2742C16.7209 35.8968 15.7791 35.8741 15.5887 35.4346L15.5883 35.4339C14.9408 35.7309 14.2509 35.9253 13.5435 36.0099L13.5182 35.8095C14.203 35.7275 14.871 35.5394 15.4979 35.2518L15.4976 35.2512C15.3021 34.8099 15.6877 34.2182 16.1973 33.7821L16.1982 33.7813L16.1987 33.7819C16.5246 34.1325 16.3003 34.8742 15.5015 35.2502C15.9255 35.0532 16.3239 34.8055 16.6881 34.5124L16.6876 34.5118C16.3955 34.1247 16.6005 33.4764 16.9839 32.9491L16.9846 32.9482L16.9852 32.9487C17.3783 33.2215 17.3343 33.9869 16.691 34.5101C17.0379 34.2299 17.3505 33.9097 17.6223 33.5562L17.6217 33.5558C17.2529 33.2405 17.2933 32.5707 17.5506 31.978L17.551 31.977L17.5518 31.9774C17.9922 32.1607 18.1124 32.9148 17.6245 33.5534C17.8904 33.2068 18.1171 32.8319 18.3006 32.4355L18.2999 32.4352C17.8743 32.2054 17.7663 31.546 17.8974 30.9138L17.8977 30.9127L17.8985 30.9129C18.3663 30.9991 18.6346 31.7099 18.3021 32.4323C18.4843 32.0379 18.6253 31.6258 18.7228 31.2025L18.7221 31.2023C18.2596 31.0675 18.0194 30.4473 18.0244 29.8011V29.8H18.0253C18.5006 29.7856 18.9008 30.4246 18.7236 31.199C18.8211 30.7756 18.8765 30.3436 18.8891 29.9093H18.8883C18.4089 29.8752 18.0528 29.3193 17.9315 28.685L17.9313 28.6839L17.9321 28.6838C18.3951 28.5692 18.911 29.1112 18.8892 29.9058C18.9017 29.4715 18.8716 29.0369 18.7993 28.6085L18.7986 28.6086C18.3222 28.6764 17.8662 28.207 17.6188 27.6103L17.6184 27.6093L17.6191 27.6089C18.0498 27.3988 18.6652 27.8218 18.7988 28.605C18.7264 28.1767 18.6108 27.7569 18.4536 27.352L18.4529 27.3523C17.9994 27.5194 17.4597 27.1552 17.0862 26.6219L17.0855 26.6209L17.0862 26.6204C17.4646 26.3233 18.1636 26.6086 18.4523 27.3487C18.2945 26.9426 18.0932 26.5549 17.8519 26.1922L17.8513 26.1926C17.4406 26.4523 16.8334 26.2087 16.3337 25.7645L16.3329 25.7638L16.3334 25.7632C16.6397 25.3918 17.4059 25.5239 17.85 26.1893C17.6047 25.8213 17.3176 25.4831 16.9943 25.1813L16.9938 25.1819Z" fill="#FCD462"/>
<path d="M19.0778 14.6484H6.36446C5.94379 14.6484 5.54035 14.8155 5.24289 15.113C4.94543 15.4105 4.77832 15.8139 4.77832 16.2346C4.77832 16.6552 4.94543 17.0587 5.24289 17.3561C5.54035 17.6536 5.94379 17.8207 6.36446 17.8207H19.0778C19.4985 17.8207 19.902 17.6536 20.1994 17.3561C20.4969 17.0587 20.664 16.6552 20.664 16.2346C20.664 15.8139 20.4969 15.4105 20.1994 15.113C19.902 14.8155 19.4985 14.6484 19.0778 14.6484Z" fill="#F7BE56"/>
<path d="M18.8077 16.2353L26.7924 4.00769L20.6556 0L10.0536 16.2353H18.8077Z" fill="#27A2DB"/>
</svg>
