<svg width="27" height="27" viewBox="0 0 27 27" fill="none" xmlns="http://www.w3.org/2000/svg">
<g clip-path="url(#clip0_167_1678)">
<path d="M20.925 5.40039C21.8201 5.40039 22.6786 5.75597 23.3115 6.38891C23.9444 7.02184 24.3 7.88029 24.3 8.77539V19.5754C24.3 20.4705 23.9444 21.3289 23.3115 21.9619C22.6786 22.5948 21.8201 22.9504 20.925 22.9504H6.07501C5.17991 22.9504 4.32146 22.5948 3.68853 21.9619C3.05559 21.3289 2.70001 20.4705 2.70001 19.5754V8.77539C2.70001 7.88029 3.05559 7.02184 3.68853 6.38891C4.32146 5.75597 5.17991 5.40039 6.07501 5.40039H20.925ZM22.95 10.7477L13.8429 16.1072C13.7568 16.1578 13.6606 16.1886 13.5611 16.1975C13.4617 16.2064 13.3615 16.1931 13.2678 16.1585L13.1571 16.1072L4.05001 10.7504V19.5754C4.05001 20.1125 4.26336 20.6275 4.64312 21.0073C5.02288 21.387 5.53795 21.6004 6.07501 21.6004H20.925C21.4621 21.6004 21.9771 21.387 22.3569 21.0073C22.7367 20.6275 22.95 20.1125 22.95 19.5754V10.7477ZM20.925 6.75039H6.07501C5.53795 6.75039 5.02288 6.96374 4.64312 7.3435C4.26336 7.72326 4.05001 8.23833 4.05001 8.77539V9.18309L13.5 14.7424L22.95 9.18039V8.77539C22.95 8.23833 22.7367 7.72326 22.3569 7.3435C21.9771 6.96374 21.4621 6.75039 20.925 6.75039Z" fill="black"/>
<rect x="19" y="2" width="8" height="8" rx="4" fill="#FF0000"/>
</g>
<defs>
<clipPath id="clip0_167_1678">
<rect width="27" height="27" fill="white"/>
</clipPath>
</defs>
</svg>
