<svg width="47" height="73" viewBox="0 0 47 73" fill="none" xmlns="http://www.w3.org/2000/svg">
<path d="M24.5656 32.6064H22.2289V48.1014H24.5656V32.6064Z" fill="#FFE266"/>
<path d="M11.498 54.9223C11.498 50.6537 15.1511 47.1934 19.6573 47.1934H27.1366C31.6428 47.1934 35.2957 50.6537 35.2957 54.9223H11.498V54.9223Z" fill="#FFD733"/>
<g opacity="0.48">
<path d="M19.6574 47.1943C16.5721 47.1943 13.8873 48.817 12.5006 51.2101H31.376C31.376 50.0357 31.0981 48.9231 30.6033 47.9263C29.551 47.4576 28.3765 47.1943 27.1367 47.1943H19.6574Z" fill="#FFFFFD"/>
</g>
<path d="M23.5 0.888672L30.7618 14.8269L46.9999 17.062L35.2499 27.9115L38.0237 43.2312L23.5 35.9982L8.97617 43.2312L11.75 27.9115L0 17.062L16.2381 14.8269L23.5 0.888672Z" fill="#FFD733"/>
<path d="M35.25 27.9115L47 17.0621L30.7619 14.8269L23.5 0.888672V35.9982L38.0238 43.2312L35.25 27.9115Z" fill="#FFE266"/>
<path d="M38.0238 43.231L23.1637 24.1943L35.25 27.9113L38.0238 43.231Z" fill="#FFD733"/>
<path d="M30.7619 14.8271L23.1637 24.1948L47 17.0624L30.7619 14.8271Z" fill="#FFD733"/>
<g opacity="0.48">
<path d="M23.1636 24.1948L16.2381 14.8271L0 17.0623L23.1636 24.1948Z" fill="#FFFFFD"/>
</g>
<g opacity="0.48">
<path d="M23.1644 24.1934L11.7507 27.9103L8.97693 43.23L23.1644 24.1934Z" fill="#FFFFFD"/>
</g>
<path d="M10.3934 53.9062H36.3998C37.2808 53.9062 37.9949 54.72 37.9949 55.7239V68.2485C37.9949 69.2523 37.2808 70.0661 36.3998 70.0661H10.3934C9.51244 70.0661 8.79834 69.2523 8.79834 68.2485V55.7239C8.79834 54.72 9.51244 53.9062 10.3934 53.9062Z" fill="#FE5629"/>
<path d="M14.9133 57.2217H31.9871C32.3914 57.2217 32.7192 57.7143 32.7192 58.322V67.2666C32.7192 67.8743 32.3914 68.367 31.9871 68.367H14.9133C14.509 68.367 14.1813 67.8744 14.1813 67.2666V58.322C14.1813 57.7144 14.509 57.2217 14.9133 57.2217Z" fill="#FCAB28"/>
<path d="M17.2669 57.2207H23.1395C23.2786 57.2207 23.3913 57.7133 23.3913 58.321V67.2657C23.3913 67.8733 23.2786 68.366 23.1395 68.366H17.2669C17.1278 68.366 17.0151 67.8734 17.0151 67.2657V58.321C17.0151 57.7134 17.1278 57.2207 17.2669 57.2207Z" fill="#FFD733"/>
<g opacity="0.35">
<path d="M10.1584 68.227H14.9642L26.6457 53.9062H21.1426L10.1584 68.227Z" fill="white"/>
</g>
<path d="M13.7515 21.1892L14.9042 18.4307L15.9833 21.2275L18.0035 22.3194L15.943 23.3416L14.7902 26.8494L13.7111 23.3034L11.6909 22.2114L13.7515 21.1892Z" fill="white"/>
<path d="M18.5975 17.6038L19.0951 16.4131L19.5608 17.6203L20.4328 18.0917L19.5435 18.5328L19.0459 20.0469L18.5801 18.5164L17.7081 18.045L18.5975 17.6038Z" fill="white"/>
<path d="M9.25773 68.2041H37.5367C38.4946 68.2041 39.2711 68.3994 39.2711 68.6402V71.6455C39.2711 71.8864 38.4945 72.0816 37.5367 72.0816H9.25773C8.29981 72.0816 7.52332 71.8864 7.52332 71.6455V68.6402C7.52332 68.3993 8.29981 68.2041 9.25773 68.2041Z" fill="#CD3414"/>
<path d="M15.2185 48.1006C15.2185 45.1666 17.7294 42.7881 20.8268 42.7881H25.9677C29.0651 42.7881 31.576 45.1666 31.576 48.1006H15.2185Z" fill="#FFD733"/>
<path opacity="0.48" d="M20.8269 42.7881C18.6735 42.7881 16.8045 43.9384 15.8647 45.6252H28.9629C28.9629 44.7974 28.7628 44.0138 28.4063 43.3153C27.6689 42.9776 26.8418 42.7881 25.9679 42.7881H20.8269Z" fill="#FFFFFD"/>
</svg>
