<svg width="9" height="15" viewBox="0 0 9 15" fill="none" xmlns="http://www.w3.org/2000/svg">
<path d="M7.95704 1.17321C7.87479 1.09075 7.77709 1.02533 7.66952 0.980699C7.56195 0.936062 7.44663 0.913086 7.33017 0.913086C7.21371 0.913086 7.09839 0.936062 6.99082 0.980699C6.88325 1.02533 6.78554 1.09075 6.70329 1.17321L0.74621 7.13029C0.680545 7.19582 0.628449 7.27366 0.592904 7.35935C0.557359 7.44504 0.539062 7.5369 0.539062 7.62967C0.539062 7.72244 0.557359 7.8143 0.592904 7.89999C0.628449 7.98568 0.680545 8.06351 0.74621 8.12904L6.70329 14.0861C7.05038 14.4332 7.60996 14.4332 7.95704 14.0861C8.30413 13.739 8.30413 13.1795 7.95704 12.8324L2.75788 7.63321L7.96413 2.42696C8.30413 2.07988 8.30413 1.52029 7.95704 1.17321Z" fill="#323F49"/>
</svg>
