<svg width="19" height="19" viewBox="0 0 19 19" fill="none" xmlns="http://www.w3.org/2000/svg">
<path d="M17.3758 9.67493C17.3758 9.02743 17.3222 8.55493 17.2062 8.06494H9.66153V10.9874H14.0901C14.0008 11.7137 13.5187 12.8074 12.4472 13.5424L12.4322 13.6402L14.8177 15.4513L14.9829 15.4674C16.5008 14.0937 17.3758 12.0724 17.3758 9.67493" fill="#4285F4"/>
<path d="M9.66099 17.375C11.8306 17.375 13.652 16.675 14.9824 15.4675L12.4467 13.5424C11.7681 14.0062 10.8574 14.3299 9.66099 14.3299C7.53601 14.3299 5.73246 12.9562 5.08954 11.0574L4.9953 11.0653L2.51486 12.9465L2.48242 13.0349C3.80383 15.6074 6.51811 17.375 9.66099 17.375Z" fill="#34A853"/>
<path d="M5.09004 11.0575C4.9204 10.5675 4.82223 10.0424 4.82223 9.49997C4.82223 8.95744 4.9204 8.43246 5.08112 7.94247L5.07662 7.83811L2.56509 5.92664L2.48291 5.96494C1.9383 7.03245 1.62579 8.23123 1.62579 9.49997C1.62579 10.7687 1.9383 11.9674 2.48291 13.0349L5.09004 11.0575" fill="#FBBC05"/>
<path d="M9.66103 4.66998C11.1699 4.66998 12.1878 5.30873 12.7682 5.84251L15.036 3.6725C13.6432 2.40375 11.8306 1.625 9.66103 1.625C6.51814 1.625 3.80384 3.39249 2.48242 5.96497L5.08063 7.94249C5.73248 6.04375 7.53604 4.66998 9.66103 4.66998Z" fill="#EB4335"/>
</svg>
