<svg width="282" height="16" viewBox="0 0 282 16" fill="none" xmlns="http://www.w3.org/2000/svg">
<path d="M135.719 12.144C134.911 12.144 134.199 11.96 133.583 11.592C132.975 11.224 132.499 10.716 132.155 10.068C131.811 9.412 131.639 8.656 131.639 7.8C131.639 6.944 131.811 6.192 132.155 5.544C132.499 4.888 132.975 4.376 133.583 4.008C134.199 3.64 134.911 3.456 135.719 3.456C136.527 3.456 137.235 3.64 137.843 4.008C138.459 4.376 138.939 4.888 139.283 5.544C139.627 6.192 139.799 6.944 139.799 7.8C139.799 8.656 139.627 9.412 139.283 10.068C138.939 10.716 138.459 11.224 137.843 11.592C137.235 11.96 136.527 12.144 135.719 12.144ZM135.719 10.692C136.215 10.692 136.643 10.576 137.003 10.344C137.371 10.104 137.651 9.768 137.843 9.336C138.043 8.904 138.143 8.392 138.143 7.8C138.143 7.2 138.043 6.688 137.843 6.264C137.651 5.832 137.371 5.5 137.003 5.268C136.643 5.036 136.215 4.92 135.719 4.92C135.231 4.92 134.803 5.036 134.435 5.268C134.067 5.5 133.783 5.832 133.583 6.264C133.383 6.688 133.283 7.2 133.283 7.8C133.283 8.392 133.383 8.904 133.583 9.336C133.783 9.768 134.067 10.104 134.435 10.344C134.803 10.576 135.231 10.692 135.719 10.692ZM141.22 12V3.6H144.364C145.036 3.6 145.592 3.716 146.032 3.948C146.472 4.18 146.8 4.492 147.016 4.884C147.24 5.268 147.352 5.696 147.352 6.168C147.352 6.616 147.244 7.036 147.028 7.428C146.82 7.812 146.492 8.124 146.044 8.364C145.604 8.596 145.036 8.712 144.34 8.712H142.84V12H141.22ZM145.576 12L143.848 8.304H145.6L147.424 12H145.576ZM142.84 7.536H144.256C144.752 7.536 145.116 7.416 145.348 7.176C145.58 6.936 145.696 6.62 145.696 6.228C145.696 5.836 145.58 5.528 145.348 5.304C145.116 5.072 144.752 4.956 144.256 4.956H142.84V7.536Z" fill="#383838"/>
<line y1="8.75" x2="120.08" y2="8.75" stroke="url(#paint0_linear_68_205)" stroke-width="2"/>
<line y1="-1" x2="120.08" y2="-1" transform="matrix(-1 0 0 1 281.147 10)" stroke="url(#paint1_linear_68_205)" stroke-width="2"/>
<defs>
<linearGradient id="paint0_linear_68_205" x1="0" y1="10.25" x2="120.08" y2="10.25" gradientUnits="userSpaceOnUse">
<stop stop-color="#F0F0F0"/>
<stop offset="1" stop-color="#666666"/>
</linearGradient>
<linearGradient id="paint1_linear_68_205" x1="0" y1="0.5" x2="120.08" y2="0.5" gradientUnits="userSpaceOnUse">
<stop stop-color="#F0F0F0"/>
<stop offset="1" stop-color="#666666"/>
</linearGradient>
</defs>
</svg>
