<svg width="24" height="24" viewBox="0 0 24 24" fill="none" xmlns="http://www.w3.org/2000/svg">
<g clip-path="url(#clip0_506_4480)">
<path fill-rule="evenodd" clip-rule="evenodd" d="M8.08121 2.54561C8.08121 1.20161 9.1715 0.111328 10.5155 0.111328H21.5452C22.1905 0.111783 22.8093 0.368452 23.2654 0.82492C23.7216 1.28139 23.9778 1.9003 23.9778 2.54561V21.4542C23.9778 22.0998 23.7213 22.719 23.2648 23.1755C22.8083 23.632 22.1891 23.8885 21.5435 23.8885H13.1435C13.2755 23.5216 13.3492 23.1256 13.3492 22.7142V19.5976C13.3492 19.4559 13.3435 19.3148 13.3321 19.1742C13.6315 19.2279 13.9349 19.2548 14.2424 19.2548H16.5944C17.4197 19.2548 18.2173 18.9571 18.8408 18.4163C19.4642 17.8756 19.8718 17.1281 19.9885 16.3111C20.1052 15.494 19.9233 14.6623 19.4761 13.9687C19.029 13.275 18.3467 12.7658 17.5544 12.5348C18.1066 12.019 18.5331 11.3833 18.801 10.6766C19.0689 9.97004 19.171 9.21137 19.0994 8.45908C19.0279 7.70679 18.7846 6.98097 18.3883 6.33753C17.992 5.69408 17.4533 5.1502 16.8137 4.74776C16.1741 4.34532 15.4506 4.09508 14.6991 4.01631C13.9475 3.93754 13.1879 4.03235 12.4787 4.29343C11.7696 4.5545 11.1298 4.97488 10.6088 5.52218C10.0877 6.06947 9.69919 6.72908 9.47321 7.45018C9.03005 7.26179 8.56263 7.13656 8.08464 7.07818V2.54561H8.08121ZM11.3898 8.92618C11.3898 8.18509 11.6842 7.47436 12.2082 6.95033C12.7322 6.4263 13.443 6.1319 14.1841 6.1319C14.9252 6.1319 15.6359 6.4263 16.1599 6.95033C16.684 7.47436 16.9784 8.18509 16.9784 8.92618C16.9784 9.66727 16.684 10.378 16.1599 10.902C15.6359 11.4261 14.9252 11.7205 14.1841 11.7205C13.443 11.7205 12.7322 11.4261 12.2082 10.902C11.6842 10.378 11.3898 9.66727 11.3898 8.92618ZM11.5321 11.7033L11.5355 11.7085L14.0898 14.2628C14.1306 14.3027 14.1852 14.3254 14.2424 14.3262H16.5926C16.9905 14.3262 17.372 14.4842 17.6533 14.7655C17.9346 15.0468 18.0926 15.4284 18.0926 15.8262C18.0926 16.224 17.9346 16.6055 17.6533 16.8868C17.372 17.1681 16.9905 17.3262 16.5926 17.3262H14.2424C13.3904 17.3262 12.5726 16.9885 11.9692 16.385L10.4709 14.8868L9.25378 16.1039L10.4778 17.3245C11.0795 17.9279 11.4189 18.7456 11.4189 19.5976V22.2856C11.4189 22.6834 11.2609 23.065 10.9796 23.3463C10.6983 23.6276 10.3168 23.7856 9.91893 23.7856C9.5211 23.7856 9.13957 23.6276 8.85827 23.3463C8.57696 23.065 8.41893 22.6834 8.41893 22.2856V19.5976C8.41768 19.5411 8.39501 19.4872 8.3555 19.4468L7.11264 18.2022C6.55326 18.6264 5.87067 18.8563 5.16864 18.857H1.71436C1.31653 18.857 0.935 18.699 0.653695 18.4177C0.372391 18.1364 0.214355 17.7549 0.214355 17.357C0.214355 16.9592 0.372391 16.5777 0.653695 16.2964C0.935 16.0151 1.31653 15.857 1.71436 15.857H5.16864C5.22575 15.8562 5.28036 15.8335 5.32121 15.7936L8.34864 12.7645L7.61493 12.0325C7.5745 11.993 7.52058 11.9703 7.46407 11.969H4.3475C3.94967 11.969 3.56814 11.811 3.28684 11.5297C3.00553 11.2484 2.8475 10.8669 2.8475 10.469C2.8475 10.0712 3.00553 9.68969 3.28684 9.40838C3.56814 9.12708 3.94967 8.96904 4.3475 8.96904H7.46578C8.31778 8.96904 9.1355 9.30847 9.73721 9.9119L11.5269 11.6999L11.5321 11.7033Z" fill="#323F49"/>
</g>
<defs>
<clipPath id="clip0_506_4480">
<rect width="24" height="24" fill="white"/>
</clipPath>
</defs>
</svg>
