<svg width="16" height="17" viewBox="0 0 16 17" fill="none" xmlns="http://www.w3.org/2000/svg">
<path d="M14 10C14 10.1326 13.9473 10.2598 13.8536 10.3536C13.7598 10.4473 13.6326 10.5 13.5 10.5H12V11.5H13C13.1326 11.5 13.2598 11.5527 13.3536 11.6464C13.4473 11.7402 13.5 11.8674 13.5 12C13.5 12.1326 13.4473 12.2598 13.3536 12.3536C13.2598 12.4473 13.1326 12.5 13 12.5H12V13.5C12 13.6326 11.9473 13.7598 11.8536 13.8536C11.7598 13.9473 11.6326 14 11.5 14C11.3674 14 11.2402 13.9473 11.1464 13.8536C11.0527 13.7598 11 13.6326 11 13.5V10C11 9.86739 11.0527 9.74021 11.1464 9.64645C11.2402 9.55268 11.3674 9.5 11.5 9.5H13.5C13.6326 9.5 13.7598 9.55268 13.8536 9.64645C13.9473 9.74021 14 9.86739 14 10ZM5.75 11.25C5.75 11.7141 5.56563 12.1592 5.23744 12.4874C4.90925 12.8156 4.46413 13 4 13H3.5V13.5C3.5 13.6326 3.44732 13.7598 3.35355 13.8536C3.25979 13.9473 3.13261 14 3 14C2.86739 14 2.74021 13.9473 2.64645 13.8536C2.55268 13.7598 2.5 13.6326 2.5 13.5V10C2.5 9.86739 2.55268 9.74021 2.64645 9.64645C2.74021 9.55268 2.86739 9.5 3 9.5H4C4.46413 9.5 4.90925 9.68437 5.23744 10.0126C5.56563 10.3408 5.75 10.7859 5.75 11.25ZM4.75 11.25C4.75 11.0511 4.67098 10.8603 4.53033 10.7197C4.38968 10.579 4.19891 10.5 4 10.5H3.5V12H4C4.19891 12 4.38968 11.921 4.53033 11.7803C4.67098 11.6397 4.75 11.4489 4.75 11.25ZM10.25 11.75C10.25 12.3467 10.0129 12.919 9.59099 13.341C9.16903 13.7629 8.59674 14 8 14H7C6.86739 14 6.74021 13.9473 6.64645 13.8536C6.55268 13.7598 6.5 13.6326 6.5 13.5V10C6.5 9.86739 6.55268 9.74021 6.64645 9.64645C6.74021 9.55268 6.86739 9.5 7 9.5H8C8.59674 9.5 9.16903 9.73705 9.59099 10.159C10.0129 10.581 10.25 11.1533 10.25 11.75ZM9.25 11.75C9.25 11.4185 9.1183 11.1005 8.88388 10.8661C8.64946 10.6317 8.33152 10.5 8 10.5H7.5V13H8C8.33152 13 8.64946 12.8683 8.88388 12.6339C9.1183 12.3995 9.25 12.0815 9.25 11.75ZM2.5 7.5V3C2.5 2.73478 2.60536 2.48043 2.79289 2.29289C2.98043 2.10536 3.23478 2 3.5 2H9.5C9.56568 1.99995 9.63073 2.01284 9.69143 2.03793C9.75212 2.06303 9.80728 2.09983 9.85375 2.14625L13.3538 5.64625C13.4002 5.69272 13.437 5.74788 13.4621 5.80858C13.4872 5.86927 13.5001 5.93432 13.5 6V7.5C13.5 7.63261 13.4473 7.75979 13.3536 7.85355C13.2598 7.94732 13.1326 8 13 8C12.8674 8 12.7402 7.94732 12.6464 7.85355C12.5527 7.75979 12.5 7.63261 12.5 7.5V6.5H9.5C9.36739 6.5 9.24021 6.44732 9.14645 6.35355C9.05268 6.25979 9 6.13261 9 6V3H3.5V7.5C3.5 7.63261 3.44732 7.75979 3.35355 7.85355C3.25979 7.94732 3.13261 8 3 8C2.86739 8 2.74021 7.94732 2.64645 7.85355C2.55268 7.75979 2.5 7.63261 2.5 7.5ZM10 5.5H11.7931L10 3.70688V5.5Z" fill="#D97572"/>
</svg>
