<svg width="24" height="24" viewBox="0 0 24 24" fill="none" xmlns="http://www.w3.org/2000/svg">
<path fill-rule="evenodd" clip-rule="evenodd" d="M19.0835 0.10816H5.22175C4.24992 0.109092 3.31667 0.488559 2.61995 1.16608C1.92323 1.8436 1.51783 2.76588 1.48975 3.7373V20.1499C1.49065 21.1391 1.88425 22.0874 2.58403 22.7866C3.28382 23.4857 4.23255 23.8784 5.22175 23.8784H20.7137C21.0547 23.8784 21.3818 23.743 21.6229 23.5019C21.864 23.2608 21.9995 22.9337 21.9995 22.5927C21.9995 22.2517 21.864 21.9247 21.6229 21.6836C21.3818 21.4425 21.0547 21.307 20.7137 21.307H20.3709V18.6859C20.8599 18.4455 21.2718 18.0727 21.5597 17.61C21.8475 17.1473 21.9999 16.6131 21.9995 16.0682V3.02245C21.9997 2.63945 21.9244 2.26016 21.7779 1.90627C21.6315 1.55239 21.4167 1.23084 21.1459 0.96002C20.8751 0.689199 20.5535 0.474417 20.1996 0.327954C19.8457 0.181491 19.4665 0.10622 19.0835 0.106446V0.10816ZM4.4006 20.9659C4.23868 20.8035 4.12851 20.5967 4.08398 20.3718C4.03946 20.1468 4.06258 19.9137 4.15043 19.7019C4.23828 19.49 4.38693 19.309 4.5776 19.1815C4.76827 19.0541 4.99241 18.986 5.22175 18.9859H17.7977V21.307H5.22175C4.91311 21.3067 4.61891 21.184 4.4006 20.9659ZM14.7035 14.2699C14.1008 14.4121 13.4685 14.3586 12.8983 14.1173C10.5921 12.7341 8.66207 10.8041 7.27889 8.49787C7.03962 7.9267 6.98739 7.29443 7.12967 6.69173C7.27195 6.08904 7.60144 5.54688 8.07089 5.14302L8.4926 4.7213C8.64008 4.5372 8.85304 4.41726 9.08693 4.38658C9.32081 4.35591 9.5575 4.41688 9.74746 4.55673L11.112 5.9213C11.2519 6.11126 11.3129 6.34795 11.2822 6.58184C11.2515 6.81572 11.1316 7.02869 10.9475 7.17616C10.7636 7.32388 10.644 7.53696 10.6137 7.77083C10.5833 8.00471 10.6446 8.24126 10.7846 8.43102L12.9652 10.6116C13.1549 10.7516 13.3915 10.8129 13.6254 10.7825C13.8592 10.7522 14.0723 10.6326 14.22 10.4487C14.3677 10.2649 14.5808 10.1453 14.8147 10.1149C15.0486 10.0846 15.2851 10.1458 15.4749 10.2859L16.8395 11.6487C16.9793 11.8387 17.0403 12.0754 17.0096 12.3093C16.9789 12.5432 16.859 12.7561 16.6749 12.9036L16.2532 13.327C15.8505 13.7979 15.3083 14.1281 14.7052 14.2699H14.7035Z" fill="#323F49"/>
</svg>
