<svg width="24" height="24" viewBox="0 0 24 24" fill="none" xmlns="http://www.w3.org/2000/svg">
<g clip-path="url(#clip0_506_4466)">
<path d="M23.7773 22.7231C23.9257 22.8715 23.9999 23.0473 23.9999 23.2504C23.9999 23.4536 23.9257 23.6293 23.7773 23.7778C23.6289 23.9262 23.4531 24.0004 23.2499 24.0004C23.0468 24.0004 22.871 23.9262 22.7226 23.7778L13.5234 14.5903C12.7812 15.2153 11.9609 15.6879 11.0624 16.0082C10.164 16.3286 9.22651 16.4926 8.24995 16.5004C7.49213 16.5004 6.76166 16.4028 6.05854 16.2075C5.35541 16.0122 4.69916 15.7348 4.08979 15.3754C3.48041 15.0161 2.92182 14.5864 2.41401 14.0864C1.9062 13.5864 1.47651 13.0317 1.12495 12.4223C0.773383 11.8129 0.49604 11.1528 0.292914 10.4418C0.0897895 9.7309 -0.00786675 9.00043 -5.42534e-05 8.25043C-5.42534e-05 7.49262 0.097602 6.76215 0.292914 6.05903C0.488227 5.3559 0.765571 4.69965 1.12495 4.09028C1.48432 3.4809 1.91401 2.92231 2.41401 2.4145C2.91401 1.90668 3.4687 1.477 4.07807 1.12543C4.68745 0.773872 5.3476 0.496528 6.05854 0.293403C6.76948 0.0902778 7.49995 -0.00737847 8.24995 0.000434028C9.00776 0.000434028 9.73823 0.0980903 10.4414 0.293403C11.1445 0.488715 11.8007 0.766059 12.4101 1.12543C13.0195 1.48481 13.5781 1.9145 14.0859 2.4145C14.5937 2.9145 15.0234 3.46918 15.3749 4.07856C15.7265 4.68793 16.0039 5.34809 16.207 6.05903C16.4101 6.76997 16.5078 7.50043 16.4999 8.25043C16.4999 9.21918 16.3398 10.1528 16.0195 11.0512C15.6992 11.9497 15.2226 12.7739 14.5898 13.5239L23.7773 22.7231ZM8.99995 12.0004H7.49995V13.5004H8.99995V12.0004ZM9.0937 10.5004C9.0937 10.2661 9.16791 10.0551 9.31635 9.86762C9.46479 9.68012 9.64838 9.49653 9.86713 9.31684C10.0859 9.13715 10.3281 8.94965 10.5937 8.75434C10.8593 8.55903 11.0976 8.34028 11.3085 8.09809C11.5195 7.8559 11.707 7.58247 11.871 7.27778C12.0351 6.97309 12.1093 6.61372 12.0937 6.19965C12.0937 5.69184 11.9804 5.23481 11.7539 4.82856C11.5273 4.42231 11.2343 4.07856 10.8749 3.79731C10.5156 3.51606 10.1054 3.29731 9.64448 3.14106C9.18354 2.98481 8.7187 2.90668 8.24995 2.90668C7.78901 2.90668 7.33198 2.96918 6.87885 3.09418C6.42573 3.21918 6.01166 3.4145 5.63666 3.68012C5.26166 3.94575 4.96479 4.26606 4.74604 4.64106C4.52729 5.01606 4.41401 5.46918 4.4062 6.00043H6.0937C6.0937 5.74262 6.16401 5.52387 6.30463 5.34418C6.44526 5.1645 6.62885 5.01997 6.85541 4.91059C7.08198 4.80122 7.31635 4.71918 7.55854 4.6645C7.80073 4.60981 8.0312 4.58637 8.24995 4.59418C8.47651 4.59418 8.71479 4.62934 8.96479 4.69965C9.21479 4.76997 9.44916 4.87153 9.66791 5.00434C9.88666 5.13715 10.0624 5.30122 10.1953 5.49653C10.3281 5.69184 10.3984 5.92622 10.4062 6.19965C10.4062 6.43403 10.332 6.64497 10.1835 6.83247C10.0351 7.01997 9.85151 7.20356 9.63276 7.38325C9.41401 7.56293 9.17182 7.75043 8.9062 7.94575C8.64057 8.14106 8.40229 8.35981 8.19135 8.602C7.98041 8.84418 7.79291 9.11762 7.62885 9.42231C7.46479 9.727 7.39057 10.0864 7.4062 10.5004H9.0937Z" fill="#323F49"/>
</g>
<defs>
<clipPath id="clip0_506_4466">
<rect width="24" height="24" fill="white"/>
</clipPath>
</defs>
</svg>
