<svg width="18" height="18" viewBox="0 0 18 18" fill="none" xmlns="http://www.w3.org/2000/svg">
<path d="M13.2098 11.6369C14.2991 10.1504 14.787 8.30742 14.5759 6.47666C14.3647 4.6459 13.4701 2.96237 12.071 1.76289C10.6719 0.563405 8.8715 -0.0635771 7.02997 0.00738022C5.18845 0.0783375 3.44162 0.842001 2.13896 2.14559C0.836304 3.44918 0.0738903 5.19655 0.00425079 7.03813C-0.0653888 8.87971 0.562881 10.6797 1.76337 12.0779C2.96385 13.4762 4.64802 14.3696 6.47893 14.5794C8.30984 14.7892 10.1525 14.3 11.6382 13.2096H11.637C11.67 13.2546 11.7068 13.2977 11.7473 13.339L16.0785 17.6702C16.2895 17.8813 16.5756 18 16.8741 18.0001C17.1725 18.0002 17.4587 17.8818 17.6698 17.6708C17.8809 17.4599 17.9996 17.1737 17.9997 16.8753C17.9998 16.5768 17.8814 16.2906 17.6704 16.0795L13.3392 11.7482C13.299 11.7075 13.2557 11.671 13.2098 11.6369ZM13.5 7.31237C13.5 8.12492 13.34 8.92952 13.029 9.68022C12.7181 10.4309 12.2623 11.113 11.6878 11.6876C11.1132 12.2622 10.4311 12.7179 9.68039 13.0289C8.92968 13.3398 8.12509 13.4999 7.31253 13.4999C6.49998 13.4999 5.69538 13.3398 4.94468 13.0289C4.19398 12.7179 3.51187 12.2622 2.93731 11.6876C2.36275 11.113 1.90698 10.4309 1.59603 9.68022C1.28508 8.92952 1.12503 8.12492 1.12503 7.31237C1.12503 5.67134 1.77693 4.09753 2.93731 2.93715C4.09769 1.77676 5.67151 1.12487 7.31253 1.12487C8.95356 1.12487 10.5274 1.77676 11.6878 2.93715C12.8481 4.09753 13.5 5.67134 13.5 7.31237Z" fill="#4B4B4B"/>
</svg>
