<svg width="23" height="23" viewBox="0 0 23 23" fill="none" xmlns="http://www.w3.org/2000/svg">
<path d="M11.603 15.2964V19.8756" stroke="#778D9F" stroke-width="2" stroke-linecap="round" stroke-linejoin="round"/>
<path d="M15.2664 13.4648V19.8757" stroke="#778D9F" stroke-width="2" stroke-linecap="round" stroke-linejoin="round"/>
<path d="M18.9297 9.80127V19.8754" stroke="#778D9F" stroke-width="2" stroke-linecap="round" stroke-linejoin="round"/>
<path d="M20.7614 3.39062L12.8431 11.3089C12.8005 11.3516 12.75 11.3854 12.6944 11.4085C12.6387 11.4316 12.5791 11.4434 12.5189 11.4434C12.4586 11.4434 12.399 11.4316 12.3434 11.4085C12.2877 11.3854 12.2372 11.3516 12.1947 11.3089L9.17974 8.294C9.09387 8.20815 8.97742 8.15992 8.85599 8.15992C8.73457 8.15992 8.61812 8.20815 8.53225 8.294L2.4447 14.3806" stroke="#778D9F" stroke-width="2" stroke-linecap="round" stroke-linejoin="round"/>
<path d="M4.27637 17.1279V19.8754" stroke="#778D9F" stroke-width="2" stroke-linecap="round" stroke-linejoin="round"/>
<path d="M7.9397 13.4648V19.8757" stroke="#778D9F" stroke-width="2" stroke-linecap="round" stroke-linejoin="round"/>
</svg>
