<svg width="23" height="23" viewBox="0 0 23 23" fill="none" xmlns="http://www.w3.org/2000/svg">
<path d="M11.6035 15.1284V19.7076" stroke="#C884FC" stroke-width="2" stroke-linecap="round" stroke-linejoin="round"/>
<path d="M15.2666 13.2969V19.7077" stroke="#C884FC" stroke-width="2" stroke-linecap="round" stroke-linejoin="round"/>
<path d="M18.9297 9.6333V19.7075" stroke="#C884FC" stroke-width="2" stroke-linecap="round" stroke-linejoin="round"/>
<path d="M20.762 3.22266L12.8437 11.141C12.8011 11.1836 12.7506 11.2174 12.695 11.2405C12.6394 11.2636 12.5797 11.2755 12.5195 11.2755C12.4592 11.2755 12.3996 11.2636 12.344 11.2405C12.2883 11.2174 12.2378 11.1836 12.1953 11.141L9.18035 8.12603C9.09448 8.04018 8.97803 7.99196 8.8566 7.99196C8.73518 7.99196 8.61873 8.04018 8.53286 8.12603L2.44531 14.2127" stroke="#C884FC" stroke-width="2" stroke-linecap="round" stroke-linejoin="round"/>
<path d="M4.27637 16.96V19.7075" stroke="#C884FC" stroke-width="2" stroke-linecap="round" stroke-linejoin="round"/>
<path d="M7.94043 13.2969V19.7077" stroke="#C884FC" stroke-width="2" stroke-linecap="round" stroke-linejoin="round"/>
</svg>
