<svg width="23" height="23" viewBox="0 0 23 23" fill="none" xmlns="http://www.w3.org/2000/svg">
<path d="M9.18945 3.55453H5.06445C4.74536 3.55453 4.43935 3.68129 4.21372 3.90692C3.98809 4.13255 3.86133 4.43857 3.86133 4.75766V18.5077C3.86133 18.8267 3.98809 19.1328 4.21372 19.3584C4.43935 19.584 4.74536 19.7108 5.06445 19.7108H9.18945C9.34745 19.7108 9.5039 19.6797 9.64987 19.6192C9.79584 19.5587 9.92847 19.4701 10.0402 19.3584C10.1519 19.2467 10.2405 19.114 10.301 18.9681C10.3615 18.8221 10.3926 18.6657 10.3926 18.5077V4.75766C10.3926 4.59966 10.3615 4.44321 10.301 4.29724C10.2405 4.15127 10.1519 4.01864 10.0402 3.90692C9.92847 3.7952 9.79584 3.70658 9.64987 3.64612C9.5039 3.58565 9.34745 3.55453 9.18945 3.55453ZM4.89258 7.33578H9.36133V15.9295H4.89258V7.33578ZM5.06445 4.58578H9.18945C9.23504 4.58578 9.27875 4.60389 9.31099 4.63612C9.34322 4.66836 9.36133 4.71207 9.36133 4.75766V6.30453H4.89258V4.75766C4.89258 4.71207 4.91069 4.66836 4.94292 4.63612C4.97515 4.60389 5.01887 4.58578 5.06445 4.58578ZM9.18945 18.6795H5.06445C5.01887 18.6795 4.97515 18.6614 4.94292 18.6292C4.91069 18.597 4.89258 18.5532 4.89258 18.5077V16.9608H9.36133V18.5077C9.36133 18.5532 9.34322 18.597 9.31099 18.6292C9.27875 18.6614 9.23504 18.6795 9.18945 18.6795ZM19.9918 17.3905L17.1395 3.8261C17.1073 3.67081 17.0448 3.52342 16.9554 3.39241C16.8661 3.26139 16.7517 3.14934 16.6189 3.06268C16.486 2.97603 16.3374 2.91649 16.1815 2.88748C16.0256 2.85848 15.8655 2.86058 15.7104 2.89367L11.6877 3.75821C11.3763 3.82664 11.1045 4.01507 10.9313 4.28263C10.758 4.55018 10.6972 4.87526 10.7621 5.18735L13.6144 18.7491C13.6468 18.905 13.7099 19.0528 13.7998 19.1841C13.8898 19.3154 14.005 19.4275 14.1386 19.514C14.332 19.6405 14.558 19.708 14.7891 19.7082C14.8758 19.7086 14.9623 19.6994 15.047 19.6807L19.0697 18.817C19.3798 18.7478 19.6503 18.5594 19.8228 18.2926C19.9954 18.0257 20.056 17.7017 19.9918 17.3905ZM12.8753 10.2302L17.2349 9.29344L18.4484 15.065L14.0879 15.9991L12.8753 10.2302ZM12.3055 7.51797L16.666 6.57867L17.0227 8.2811L12.663 9.21782L12.3055 7.51797ZM11.9051 4.76797L15.927 3.9043C15.939 3.90303 15.951 3.90303 15.963 3.9043C15.9952 3.90439 16.0266 3.91395 16.0533 3.9318C16.073 3.94437 16.09 3.96084 16.1031 3.9802C16.1163 3.99955 16.1254 4.02139 16.1298 4.04438L16.452 5.57578L12.0933 6.50563L11.7719 4.97766C11.7618 4.93199 11.7702 4.8842 11.7951 4.84463C11.82 4.80507 11.8595 4.77691 11.9051 4.76625V4.76797ZM18.8497 17.8133L14.827 18.6795C14.8054 18.6843 14.7831 18.6847 14.7614 18.6807C14.7397 18.6767 14.7191 18.6684 14.7006 18.6563C14.6809 18.6438 14.6639 18.6273 14.6508 18.6079C14.6376 18.5886 14.6286 18.5667 14.6241 18.5438L14.3019 17.0123L18.6606 16.0756L18.9863 17.5993C18.9914 17.6222 18.9918 17.6459 18.9877 17.669C18.9836 17.6921 18.9749 17.7141 18.9622 17.7339C18.9495 17.7536 18.933 17.7706 18.9137 17.784C18.8944 17.7973 18.8726 17.8067 18.8497 17.8116V17.8133Z" fill="#C884FC"/>
</svg>
