<svg width="22" height="23" viewBox="0 0 22 23" fill="none" xmlns="http://www.w3.org/2000/svg">
<path d="M13.7475 2.47461H5.50501C5.01922 2.47461 4.55333 2.66759 4.20982 3.01109C3.86632 3.3546 3.67334 3.82049 3.67334 4.30628V18.9596C3.67334 19.4454 3.86632 19.9113 4.20982 20.2548C4.55333 20.5983 5.01922 20.7913 5.50501 20.7913H16.495C16.9808 20.7913 17.4467 20.5983 17.7902 20.2548C18.1337 19.9113 18.3267 19.4454 18.3267 18.9596V7.05378L13.7475 2.47461Z" stroke="#778D9F" stroke-width="2" stroke-linecap="round" stroke-linejoin="round"/>
<path d="M12.8317 2.47461V6.13794C12.8317 6.62373 13.0246 7.08962 13.3681 7.43313C13.7117 7.77663 14.1775 7.96961 14.6633 7.96961H18.3267" stroke="#778D9F" stroke-width="2" stroke-linecap="round" stroke-linejoin="round"/>
<path d="M9.16834 8.88574H7.33667" stroke="#778D9F" stroke-width="2" stroke-linecap="round" stroke-linejoin="round"/>
<path d="M14.6633 12.5488H7.33667" stroke="#778D9F" stroke-width="2" stroke-linecap="round" stroke-linejoin="round"/>
<path d="M14.6633 16.2124H7.33667" stroke="#778D9F" stroke-width="2" stroke-linecap="round" stroke-linejoin="round"/>
</svg>
