<svg width="22" height="23" viewBox="0 0 22 23" fill="none" xmlns="http://www.w3.org/2000/svg">
<g clip-path="url(#clip0_231_1037)">
<path d="M13.747 2.6958H5.50452C5.01873 2.6958 4.55284 2.88878 4.20933 3.23228C3.86583 3.57579 3.67285 4.04168 3.67285 4.52747V19.1808C3.67285 19.6666 3.86583 20.1325 4.20933 20.476C4.55284 20.8195 5.01873 21.0125 5.50452 21.0125H16.4945C16.9803 21.0125 17.4462 20.8195 17.7897 20.476C18.1332 20.1325 18.3262 19.6666 18.3262 19.1808V7.27497L13.747 2.6958Z" stroke="#C884FC" stroke-width="2" stroke-linecap="round" stroke-linejoin="round"/>
<path d="M12.8311 2.6958V6.35913C12.8311 6.84492 13.024 7.31081 13.3675 7.65432C13.711 7.99782 14.1769 8.1908 14.6627 8.1908H18.3261" stroke="#C884FC" stroke-width="2" stroke-linecap="round" stroke-linejoin="round"/>
<path d="M9.16858 9.10693H7.33691" stroke="#C884FC" stroke-width="2" stroke-linecap="round" stroke-linejoin="round"/>
<path d="M14.6636 12.77H7.33691" stroke="#C884FC" stroke-width="2" stroke-linecap="round" stroke-linejoin="round"/>
<path d="M14.6636 16.4336H7.33691" stroke="#C884FC" stroke-width="2" stroke-linecap="round" stroke-linejoin="round"/>
</g>
<defs>
<clipPath id="clip0_231_1037">
<rect width="21.98" height="21.98" fill="white" transform="translate(0.00976562 0.864258)"/>
</clipPath>
</defs>
</svg>
