<svg width="23" height="23" viewBox="0 0 23 23" fill="none" xmlns="http://www.w3.org/2000/svg">
<path d="M13.9995 2.48193H5.75696C5.27117 2.48193 4.80528 2.67491 4.46178 3.01842C4.11827 3.36192 3.92529 3.82781 3.92529 4.3136V18.9669C3.92529 19.4527 4.11827 19.9186 4.46178 20.2621C4.80528 20.6056 5.27117 20.7986 5.75696 20.7986H16.747C17.2327 20.7986 17.6986 20.6056 18.0421 20.2621C18.3856 19.9186 18.5786 19.4527 18.5786 18.9669V7.0611L13.9995 2.48193Z" stroke="#C884FC" stroke-width="2" stroke-linecap="round" stroke-linejoin="round"/>
<path d="M13.0836 2.48193V6.14527C13.0836 6.63105 13.2766 7.09695 13.6201 7.44045C13.9636 7.78395 14.4295 7.97693 14.9153 7.97693H18.5786" stroke="#C884FC" stroke-width="2" stroke-linecap="round" stroke-linejoin="round"/>
<path d="M9.42029 8.89307H7.58862" stroke="#C884FC" stroke-width="2" stroke-linecap="round" stroke-linejoin="round"/>
<path d="M14.9153 12.5562H7.58862" stroke="#C884FC" stroke-width="2" stroke-linecap="round" stroke-linejoin="round"/>
<path d="M14.9153 16.2197H7.58862" stroke="#C884FC" stroke-width="2" stroke-linecap="round" stroke-linejoin="round"/>
</svg>
