<svg width="23" height="23" viewBox="0 0 23 23" fill="none" xmlns="http://www.w3.org/2000/svg">
<path d="M11.7557 15.3037V19.8829" stroke="#778D9F" stroke-width="2" stroke-linecap="round" stroke-linejoin="round"/>
<path d="M15.4191 13.4722V19.883" stroke="#778D9F" stroke-width="2" stroke-linecap="round" stroke-linejoin="round"/>
<path d="M19.0824 9.80859V19.8828" stroke="#778D9F" stroke-width="2" stroke-linecap="round" stroke-linejoin="round"/>
<path d="M20.914 3.39795L12.9958 11.3162C12.9532 11.3589 12.9027 11.3927 12.8471 11.4158C12.7914 11.4389 12.7318 11.4508 12.6715 11.4508C12.6113 11.4508 12.5517 11.4389 12.496 11.4158C12.4404 11.3927 12.3899 11.3589 12.3473 11.3162L9.33242 8.30132C9.24655 8.21547 9.1301 8.16725 9.00867 8.16725C8.88725 8.16725 8.7708 8.21547 8.68493 8.30132L2.59738 14.3879" stroke="#778D9F" stroke-width="2" stroke-linecap="round" stroke-linejoin="round"/>
<path d="M4.42905 17.1353V19.8828" stroke="#778D9F" stroke-width="2" stroke-linecap="round" stroke-linejoin="round"/>
<path d="M8.09238 13.4722V19.883" stroke="#778D9F" stroke-width="2" stroke-linecap="round" stroke-linejoin="round"/>
</svg>
