<svg width="23" height="23" viewBox="0 0 23 23" fill="none" xmlns="http://www.w3.org/2000/svg">
<path d="M11.7559 15.3037V19.8829" stroke="#C884FC" stroke-width="2" stroke-linecap="round" stroke-linejoin="round"/>
<path d="M15.4192 13.4722V19.883" stroke="#C884FC" stroke-width="2" stroke-linecap="round" stroke-linejoin="round"/>
<path d="M19.0825 9.80859V19.8828" stroke="#C884FC" stroke-width="2" stroke-linecap="round" stroke-linejoin="round"/>
<path d="M20.9143 3.39795L12.996 11.3162C12.9535 11.3589 12.903 11.3927 12.8473 11.4158C12.7917 11.4389 12.7321 11.4508 12.6718 11.4508C12.6116 11.4508 12.552 11.4389 12.4963 11.4158C12.4407 11.3927 12.3902 11.3589 12.3476 11.3162L9.33269 8.30132C9.24682 8.21547 9.13037 8.16725 9.00895 8.16725C8.88752 8.16725 8.77107 8.21547 8.6852 8.30132L2.59766 14.3879" stroke="#C884FC" stroke-width="2" stroke-linecap="round" stroke-linejoin="round"/>
<path d="M4.4292 17.1353V19.8828" stroke="#C884FC" stroke-width="2" stroke-linecap="round" stroke-linejoin="round"/>
<path d="M8.09253 13.4722V19.883" stroke="#C884FC" stroke-width="2" stroke-linecap="round" stroke-linejoin="round"/>
</svg>
