<svg width="23" height="23" viewBox="0 0 23 23" fill="none" xmlns="http://www.w3.org/2000/svg">
<path fill-rule="evenodd" clip-rule="evenodd" d="M10.6806 1.75644C11.0113 1.49916 11.4745 1.49916 11.8053 1.75644L20.0496 8.16865C20.2727 8.3422 20.4033 8.60904 20.4033 8.89172V18.9681C20.4033 19.6969 20.1137 20.3959 19.5984 20.9113C19.083 21.4266 18.384 21.7161 17.6552 21.7161H4.83073C4.10189 21.7161 3.40291 21.4266 2.88754 20.9113C2.37217 20.3959 2.08264 19.6969 2.08264 18.9681V8.89172C2.08264 8.60904 2.21315 8.3422 2.43628 8.16865L10.6806 1.75644ZM3.9147 9.33974V18.9681C3.9147 19.211 4.01121 19.444 4.183 19.6158C4.35479 19.7876 4.58779 19.8841 4.83073 19.8841H17.6552C17.8981 19.8841 18.1311 19.7876 18.3029 19.6158C18.4747 19.444 18.5712 19.211 18.5712 18.9681V9.33974L11.2429 3.63999L3.9147 9.33974Z" fill="#778D9F"/>
<path fill-rule="evenodd" clip-rule="evenodd" d="M7.57886 11.6397C7.57886 11.1338 7.98898 10.7236 8.49489 10.7236H13.9911C14.497 10.7236 14.9071 11.1338 14.9071 11.6397V20.8C14.9071 21.3059 14.497 21.716 13.9911 21.716C13.4852 21.716 13.075 21.3059 13.075 20.8V12.5557H9.41092V20.8C9.41092 21.3059 9.0008 21.716 8.49489 21.716C7.98898 21.716 7.57886 21.3059 7.57886 20.8V11.6397Z" fill="#778D9F"/>
</svg>
