<svg width="23" height="23" viewBox="0 0 23 23" fill="none" xmlns="http://www.w3.org/2000/svg">
<path fill-rule="evenodd" clip-rule="evenodd" d="M10.6807 1.75644C11.0115 1.49916 11.4747 1.49916 11.8055 1.75644L20.0497 8.16865C20.2729 8.3422 20.4034 8.60904 20.4034 8.89172V18.9681C20.4034 19.6969 20.1138 20.3959 19.5985 20.9113C19.0831 21.4266 18.3841 21.7161 17.6553 21.7161H4.83086C4.10202 21.7161 3.40303 21.4266 2.88766 20.9113C2.37229 20.3959 2.08276 19.6969 2.08276 18.9681V8.89172C2.08276 8.60904 2.21327 8.3422 2.43641 8.16865L10.6807 1.75644ZM3.91482 9.33974V18.9681C3.91482 19.211 4.01133 19.444 4.18312 19.6158C4.35491 19.7876 4.58791 19.8841 4.83086 19.8841H17.6553C17.8982 19.8841 18.1312 19.7876 18.303 19.6158C18.4748 19.444 18.5713 19.211 18.5713 18.9681V9.33974L11.2431 3.63999L3.91482 9.33974Z" fill="#C884FC"/>
<path fill-rule="evenodd" clip-rule="evenodd" d="M7.57895 11.6397C7.57895 11.1338 7.98907 10.7236 8.49498 10.7236H13.9912C14.4971 10.7236 14.9072 11.1338 14.9072 11.6397V20.8C14.9072 21.3059 14.4971 21.716 13.9912 21.716C13.4853 21.716 13.0751 21.3059 13.0751 20.8V12.5557H9.41101V20.8C9.41101 21.3059 9.00089 21.716 8.49498 21.716C7.98907 21.716 7.57895 21.3059 7.57895 20.8V11.6397Z" fill="#C884FC"/>
</svg>
