<svg width="17" height="18" viewBox="0 0 17 18" fill="none" xmlns="http://www.w3.org/2000/svg">
<path d="M6.14355 1.55453H2.01855C1.69947 1.55453 1.39345 1.68129 1.16782 1.90692C0.942187 2.13255 0.81543 2.43857 0.81543 2.75766V16.5077C0.81543 16.8267 0.942187 17.1328 1.16782 17.3584C1.39345 17.584 1.69947 17.7108 2.01855 17.7108H6.14355C6.30155 17.7108 6.458 17.6797 6.60397 17.6192C6.74994 17.5587 6.88257 17.4701 6.99429 17.3584C7.10601 17.2467 7.19463 17.114 7.2551 16.9681C7.31556 16.8221 7.34668 16.6657 7.34668 16.5077V2.75766C7.34668 2.59966 7.31556 2.44321 7.2551 2.29724C7.19463 2.15127 7.10601 2.01864 6.99429 1.90692C6.88257 1.7952 6.74994 1.70658 6.60397 1.64612C6.458 1.58565 6.30155 1.55453 6.14355 1.55453ZM1.84668 5.33578H6.31543V13.9295H1.84668V5.33578ZM2.01855 2.58578H6.14355C6.18914 2.58578 6.23286 2.60389 6.26509 2.63612C6.29732 2.66836 6.31543 2.71207 6.31543 2.75766V4.30453H1.84668V2.75766C1.84668 2.71207 1.86479 2.66836 1.89702 2.63612C1.92925 2.60389 1.97297 2.58578 2.01855 2.58578ZM6.14355 16.6795H2.01855C1.97297 16.6795 1.92925 16.6614 1.89702 16.6292C1.86479 16.597 1.84668 16.5532 1.84668 16.5077V14.9608H6.31543V16.5077C6.31543 16.5532 6.29732 16.597 6.26509 16.6292C6.23286 16.6614 6.18914 16.6795 6.14355 16.6795ZM16.9459 15.3905L14.0936 1.8261C14.0614 1.67081 13.9989 1.52342 13.9095 1.39241C13.8202 1.26139 13.7058 1.14934 13.573 1.06268C13.4402 0.976028 13.2915 0.916487 13.1356 0.887482C12.9797 0.858477 12.8196 0.860581 12.6645 0.893674L8.64176 1.75821C8.33043 1.82664 8.05865 2.01507 7.88537 2.28263C7.7121 2.55018 7.65132 2.87526 7.71621 3.18735L10.5685 16.7491C10.6009 16.905 10.664 17.0528 10.7539 17.1841C10.8439 17.3154 10.9591 17.4275 11.0927 17.514C11.2861 17.6405 11.5121 17.708 11.7432 17.7082C11.8299 17.7086 11.9164 17.6994 12.0011 17.6807L16.0238 16.817C16.3339 16.7478 16.6044 16.5594 16.777 16.2926C16.9495 16.0257 17.0101 15.7017 16.9459 15.3905ZM9.82941 8.23016L14.189 7.29344L15.4025 13.065L11.042 13.9991L9.82941 8.23016ZM9.25965 5.51797L13.6201 4.57867L13.9768 6.2811L9.61715 7.21782L9.25965 5.51797ZM8.85918 2.76797L12.8811 1.9043C12.8931 1.90303 12.9052 1.90303 12.9171 1.9043C12.9493 1.90439 12.9807 1.91395 13.0074 1.9318C13.0271 1.94437 13.0441 1.96084 13.0572 1.9802C13.0704 1.99955 13.0795 2.02139 13.0839 2.04438L13.4061 3.57578L9.04738 4.50563L8.72598 2.97766C8.71594 2.93199 8.72428 2.8842 8.74921 2.84463C8.77414 2.80507 8.81365 2.77691 8.85918 2.76625V2.76797ZM15.8038 15.8133L11.7811 16.6795C11.7595 16.6843 11.7372 16.6847 11.7155 16.6807C11.6938 16.6767 11.6732 16.6684 11.6547 16.6563C11.635 16.6438 11.618 16.6273 11.6049 16.6079C11.5917 16.5886 11.5827 16.5667 11.5782 16.5438L11.256 15.0123L15.6147 14.0756L15.9404 15.5993C15.9455 15.6222 15.9459 15.6459 15.9418 15.669C15.9377 15.6921 15.929 15.7141 15.9163 15.7339C15.9036 15.7536 15.8871 15.7706 15.8678 15.784C15.8485 15.7973 15.8267 15.8067 15.8038 15.8116V15.8133Z" fill="#637D92"/>
</svg>
