<svg width="21" height="21" viewBox="0 0 21 21" fill="none" xmlns="http://www.w3.org/2000/svg">
<path d="M4.0892 15.6328C3.85308 15.6328 3.65531 15.5528 3.49586 15.3928C3.33642 15.2328 3.25642 15.035 3.25586 14.7995C3.25531 14.5639 3.33531 14.3661 3.49586 14.2061C3.65642 14.0461 3.8542 13.9661 4.0892 13.9661H17.4225C17.6586 13.9661 17.8567 14.0461 18.0167 14.2061C18.1767 14.3661 18.2564 14.5639 18.2559 14.7995C18.2553 15.035 18.1753 15.2331 18.0159 15.3936C17.8564 15.5542 17.6586 15.6339 17.4225 15.6328H4.0892ZM4.0892 11.4661C3.85308 11.4661 3.65531 11.3861 3.49586 11.2261C3.33642 11.0661 3.25642 10.8684 3.25586 10.6328C3.25531 10.3973 3.33531 10.1995 3.49586 10.0395C3.65642 9.87948 3.8542 9.79948 4.0892 9.79948H17.4225C17.6586 9.79948 17.8567 9.87948 18.0167 10.0395C18.1767 10.1995 18.2564 10.3973 18.2559 10.6328C18.2553 10.8684 18.1753 11.0664 18.0159 11.227C17.8564 11.3875 17.6586 11.4673 17.4225 11.4661H4.0892ZM4.0892 7.29948C3.85308 7.29948 3.65531 7.21948 3.49586 7.05948C3.33642 6.89948 3.25642 6.7017 3.25586 6.46615C3.25531 6.23059 3.33531 6.03281 3.49586 5.87281C3.65642 5.71281 3.8542 5.63281 4.0892 5.63281H17.4225C17.6586 5.63281 17.8567 5.71281 18.0167 5.87281C18.1767 6.03281 18.2564 6.23059 18.2559 6.46615C18.2553 6.7017 18.1753 6.89976 18.0159 7.06031C17.8564 7.22087 17.6586 7.30059 17.4225 7.29948H4.0892Z" fill="#C884FC"/>
</svg>
