<svg width="25" height="25" viewBox="0 0 25 25" fill="none" xmlns="http://www.w3.org/2000/svg">
<path opacity="0.3" d="M19.2061 12.6328V18.0773C19.2061 18.4898 19.0422 18.8855 18.7504 19.1772C18.4587 19.4689 18.0631 19.6328 17.6505 19.6328H6.76161C6.34905 19.6328 5.95339 19.4689 5.66167 19.1772C5.36994 18.8855 5.20605 18.4898 5.20605 18.0773V12.6328H19.2061Z" fill="#323F49"/>
<path d="M15.3172 5.63281C15.5234 5.63281 15.7213 5.70807 15.8671 5.84202C16.013 5.97598 16.0949 6.15766 16.0949 6.3471V7.06138H17.6505C18.0631 7.06138 18.4587 7.21189 18.7504 7.4798C19.0422 7.74771 19.2061 8.11107 19.2061 8.48996V10.6328H5.20605V8.48996C5.20605 8.11107 5.36994 7.74771 5.66167 7.4798C5.95339 7.21189 6.34905 7.06138 6.76161 7.06138H8.31717V6.3471C8.31717 6.15766 8.39911 5.97598 8.54497 5.84202C8.69083 5.70807 8.88866 5.63281 9.09494 5.63281C9.30122 5.63281 9.49905 5.70807 9.64492 5.84202C9.79078 5.97598 9.87272 6.15766 9.87272 6.3471V7.06138H14.5394V6.3471C14.5394 6.15766 14.6213 5.97598 14.7672 5.84202C14.9131 5.70807 15.1109 5.63281 15.3172 5.63281Z" fill="#323F49"/>
</svg>
