<svg width="23" height="23" viewBox="0 0 23 23" fill="none" xmlns="http://www.w3.org/2000/svg">
<path d="M11.7481 12.5562V19.8828" stroke="#778D9F" stroke-width="2" stroke-linecap="round" stroke-linejoin="round"/>
<path d="M4.42143 14.2954C3.741 13.6003 3.2277 12.7593 2.92041 11.8364C2.61311 10.9134 2.51989 9.93264 2.64779 8.96832C2.77569 8.004 3.12136 7.08143 3.65862 6.27049C4.19589 5.45955 4.91065 4.78151 5.74877 4.28773C6.5869 3.79394 7.5264 3.49737 8.49612 3.42046C9.46584 3.34355 10.4403 3.48833 11.3458 3.84383C12.2513 4.19933 13.064 4.75623 13.7224 5.47235C14.3808 6.18846 14.8675 7.04501 15.1458 7.97712H16.7852C17.6694 7.97701 18.5303 8.26132 19.2405 8.78803C19.9508 9.31474 20.4728 10.0559 20.7295 10.9021C20.9861 11.7483 20.9638 12.6546 20.6659 13.4871C20.3679 14.3196 19.8101 15.0343 19.0748 15.5254" stroke="#778D9F" stroke-width="2" stroke-linecap="round" stroke-linejoin="round"/>
<path d="M8.08476 16.2195L11.7481 12.5562L15.4114 16.2195" stroke="#778D9F" stroke-width="2" stroke-linecap="round" stroke-linejoin="round"/>
</svg>
