<svg width="23" height="23" viewBox="0 0 23 23" fill="none" xmlns="http://www.w3.org/2000/svg">
<path d="M15.4115 19.8831V18.0515C15.4115 17.0799 15.0256 16.1481 14.3385 15.4611C13.6515 14.7741 12.7198 14.3881 11.7482 14.3881H6.25318C5.2816 14.3881 4.34982 14.7741 3.66281 15.4611C2.9758 16.1481 2.58984 17.0799 2.58984 18.0515V19.8831" stroke="#778D9F" stroke-width="2" stroke-linecap="round" stroke-linejoin="round"/>
<path d="M9.00074 10.7248C11.0239 10.7248 12.6641 9.08467 12.6641 7.06147C12.6641 5.03826 11.0239 3.39813 9.00074 3.39813C6.97753 3.39813 5.3374 5.03826 5.3374 7.06147C5.3374 9.08467 6.97753 10.7248 9.00074 10.7248Z" stroke="#778D9F" stroke-width="2" stroke-linecap="round" stroke-linejoin="round"/>
<path d="M18.1591 7.97729V13.4723" stroke="#778D9F" stroke-width="2" stroke-linecap="round" stroke-linejoin="round"/>
<path d="M20.9065 10.7248H15.4115" stroke="#778D9F" stroke-width="2" stroke-linecap="round" stroke-linejoin="round"/>
</svg>
