<svg width="23" height="23" viewBox="0 0 23 23" fill="none" xmlns="http://www.w3.org/2000/svg">
<path d="M15.4114 19.8831V18.0515C15.4114 17.0799 15.0255 16.1481 14.3385 15.4611C13.6515 14.7741 12.7197 14.3881 11.7481 14.3881H6.25312C5.28154 14.3881 4.34976 14.7741 3.66275 15.4611C2.97574 16.1481 2.58978 17.0799 2.58978 18.0515V19.8831" stroke="#C884FC" stroke-width="2" stroke-linecap="round" stroke-linejoin="round"/>
<path d="M9.00061 10.7248C11.0238 10.7248 12.6639 9.08467 12.6639 7.06147C12.6639 5.03826 11.0238 3.39813 9.00061 3.39813C6.97741 3.39813 5.33728 5.03826 5.33728 7.06147C5.33728 9.08467 6.97741 10.7248 9.00061 10.7248Z" fill="white" stroke="#C884FC" stroke-width="2" stroke-linecap="round" stroke-linejoin="round"/>
<path d="M18.1589 7.97729V13.4723" stroke="#C884FC" stroke-width="2" stroke-linecap="round" stroke-linejoin="round"/>
<path d="M20.9064 10.7248H15.4114" stroke="#C884FC" stroke-width="2" stroke-linecap="round" stroke-linejoin="round"/>
</svg>
