<svg width="18" height="22" viewBox="0 0 18 22" fill="none" xmlns="http://www.w3.org/2000/svg">
<path fill-rule="evenodd" clip-rule="evenodd" d="M1.99993 7C1.99993 5.14348 2.73743 3.36301 4.05018 2.05025C5.36294 0.737498 7.14341 0 8.99993 0C10.8564 0 12.6369 0.737498 13.9497 2.05025C15.2624 3.36301 15.9999 5.14348 15.9999 7V10.764L17.8219 14.408C17.9058 14.5757 17.9454 14.7621 17.937 14.9494C17.9286 15.1368 17.8724 15.3188 17.7738 15.4783C17.6752 15.6379 17.5375 15.7695 17.3737 15.8608C17.2099 15.9521 17.0255 16 16.8379 16H12.8739C12.6515 16.8582 12.1504 17.6183 11.4492 18.1609C10.748 18.7035 9.88653 18.9979 8.99993 18.9979C8.11333 18.9979 7.25183 18.7035 6.55067 18.1609C5.8495 17.6183 5.34837 16.8582 5.12593 16H1.16193C0.974408 16 0.789992 15.9521 0.626197 15.8608C0.462403 15.7695 0.324668 15.6379 0.226075 15.4783C0.127483 15.3188 0.0713053 15.1368 0.0628789 14.9494C0.0544524 14.7621 0.0940568 14.5757 0.17793 14.408L1.99993 10.764V7ZM7.26793 16C7.44347 16.304 7.69595 16.5565 7.99997 16.732C8.304 16.9075 8.64887 16.9999 8.99993 16.9999C9.35099 16.9999 9.69586 16.9075 9.99989 16.732C10.3039 16.5565 10.5564 16.304 10.7319 16H7.26793ZM8.99993 2C7.67385 2 6.40208 2.52678 5.4644 3.46447C4.52671 4.40215 3.99993 5.67392 3.99993 7V10.764C3.99991 11.0743 3.92767 11.3804 3.78893 11.658L2.61893 14H15.3819L14.2119 11.658C14.0728 11.3805 14.0003 11.0744 13.9999 10.764V7C13.9999 5.67392 13.4731 4.40215 12.5355 3.46447C11.5978 2.52678 10.326 2 8.99993 2Z" fill="black"/>
</svg>
