<svg width="21" height="21" viewBox="0 0 21 21" fill="none" xmlns="http://www.w3.org/2000/svg">
<path fill-rule="evenodd" clip-rule="evenodd" d="M11.7278 10.4998L15.4559 6.77167C15.7954 6.43212 15.7954 5.88328 15.4559 5.54373C15.1163 5.20417 14.5675 5.20417 14.2279 5.54373L10.4998 9.27186L6.77167 5.54373C6.43212 5.20417 5.88328 5.20417 5.54373 5.54373C5.20417 5.88328 5.20417 6.43212 5.54373 6.77167L9.27186 10.4998L5.54373 14.2279C5.20417 14.5675 5.20417 15.1163 5.54373 15.4559C5.71307 15.6252 5.93538 15.7103 6.1577 15.7103C6.38002 15.7103 6.60233 15.6252 6.77167 15.4559L10.4998 11.7278L14.2279 15.4559C14.3973 15.6252 14.6196 15.7103 14.8419 15.7103C15.0642 15.7103 15.2865 15.6252 15.4559 15.4559C15.7954 15.1163 15.7954 14.5675 15.4559 14.2279L11.7278 10.4998Z" fill="#231F20"/>
<mask id="mask0_9024_13334" style="mask-type:luminance" maskUnits="userSpaceOnUse" x="5" y="5" width="11" height="11">
<path fill-rule="evenodd" clip-rule="evenodd" d="M11.7278 10.4998L15.4559 6.77167C15.7954 6.43212 15.7954 5.88328 15.4559 5.54373C15.1163 5.20417 14.5675 5.20417 14.2279 5.54373L10.4998 9.27186L6.77167 5.54373C6.43212 5.20417 5.88328 5.20417 5.54373 5.54373C5.20417 5.88328 5.20417 6.43212 5.54373 6.77167L9.27186 10.4998L5.54373 14.2279C5.20417 14.5675 5.20417 15.1163 5.54373 15.4559C5.71307 15.6252 5.93538 15.7103 6.1577 15.7103C6.38002 15.7103 6.60233 15.6252 6.77167 15.4559L10.4998 11.7278L14.2279 15.4559C14.3973 15.6252 14.6196 15.7103 14.8419 15.7103C15.0642 15.7103 15.2865 15.6252 15.4559 15.4559C15.7954 15.1163 15.7954 14.5675 15.4559 14.2279L11.7278 10.4998Z" fill="white"/>
</mask>
<g mask="url(#mask0_9024_13334)">
<rect x="0.0791016" y="0.0791016" width="20.8421" height="20.8421" fill="#F65151"/>
</g>
</svg>
